<svg id="Layer_1" data-name="Layer 1" xmlns="http://www.w3.org/2000/svg" viewBox="0 0 200 76"><defs><style>.cls-1{fill:#333;}</style></defs><title>bbf</title><path class="cls-1" d="M138,0V.37c0,1.78,0,3.56,0,5.34,0,.3-.1.4-.37.47-2.83.69-5.65,1.39-8.48,2.07a.48.48,0,0,0-.43.56c0,1.57,0,3.15,0,4.73,0,.46,0,.47.46.29l8.38-3.66L138,10v.4q0,28,0,55.94a9.22,9.22,0,0,1-2.28,6.33,9.8,9.8,0,0,1-5.29,3,11.73,11.73,0,0,1-2.71.3C108.84,76,90,76,71.1,76a8.42,8.42,0,0,1-7.63-4.2,9.72,9.72,0,0,1-1.4-5Q62,55.71,62,44.61q0-16.55,0-33.11a11.47,11.47,0,0,1,3.18-8.19A10,10,0,0,1,70.87.41,15.23,15.23,0,0,1,73.48.2H128.2c.58,0,.52-.06.53.53v.94c0,.4,0,.44.43.35L134,.91ZM122.68,13.49h0c0-1.08,0-2.15,0-3.22,0-.43-.07-.48-.47-.39-5.87,1.38-11.75,2.74-17.61,4.15A65.67,65.67,0,0,0,94,17.47a34.61,34.61,0,0,0-11.7,7.73,21.71,21.71,0,0,0-3.93,5.62,22,22,0,0,0-2.16,8.27,20.77,20.77,0,0,0,.31,5.51,20,20,0,0,0,4.44,9c.27.32.32.31.57,0,.64-.89,1.28-1.8,1.93-2.69A113.6,113.6,0,0,1,96.35,36.19a118.11,118.11,0,0,1,10.74-9.12,123.18,123.18,0,0,1,15.07-9.66.88.88,0,0,0,.52-.88C122.66,15.51,122.68,14.5,122.68,13.49Zm-.06,10.65a.71.71,0,0,0-.15,0c-.14.07-.28.14-.41.22A110.62,110.62,0,0,0,94.77,46.71a113.53,113.53,0,0,0-8.23,10.58c-.26.38-.26.44.15.64,1.35.68,2.69,1.41,4.09,2A29,29,0,0,0,101.38,62a26.16,26.16,0,0,0,3.63-.25,19.36,19.36,0,0,0,6.55-2,15.37,15.37,0,0,0,6.92-6.47,31.39,31.39,0,0,0,3.17-10.26c.31-2,.51-4,.69-6.06.16-1.82.26-3.65.31-5.49,0-2.3,0-4.62,0-6.93A3.12,3.12,0,0,0,122.62,24.14Zm-12-17.95v-.1c-.18,0-.35,0-.52,0H73.25A4.45,4.45,0,0,0,69.58,7.8a6.06,6.06,0,0,0-1.33,3.85V65.56a1.76,1.76,0,0,0,0,.23c.14,2,1,3.65,3.43,4.11a.41.41,0,0,0,.52-.28q2.42-5,5.29-9.8a.41.41,0,0,0-.08-.6c-.69-.74-1.4-1.47-2-2.26a24.06,24.06,0,0,1-5.23-13.54c-.11-1.42,0-2.86,0-4.29a24.75,24.75,0,0,1,.63-4.77,26.57,26.57,0,0,1,8-14,43.19,43.19,0,0,1,11.37-7.51A92.52,92.52,0,0,1,109.7,6.42ZM78.83,70h48.66a9.07,9.07,0,0,0,1.28-.07,3.06,3.06,0,0,0,2.44-1.66,5.21,5.21,0,0,0,.53-2.48V19.52c0-.29-.11-.32-.35-.2-.69.36-1.38.73-2.09,1a.88.88,0,0,0-.58.94c0,2.92,0,5.83-.05,8.75,0,1.88-.12,3.76-.22,5.64-.06,1.31-.13,2.63-.29,3.93-.22,1.93-.48,3.86-.8,5.77a41.17,41.17,0,0,1-2.29,8.37,20.8,20.8,0,0,1-8.46,10.37,28.32,28.32,0,0,1-14.69,4.11,33.66,33.66,0,0,1-4.49-.19,43.3,43.3,0,0,1-4.78-.79,33.5,33.5,0,0,1-9.49-4c-.38-.23-.4-.23-.62.15L79,69.63A3.77,3.77,0,0,0,78.83,70Z"/></svg>