<svg id="Layer_1" data-name="Layer 1" xmlns="http://www.w3.org/2000/svg" viewBox="0 0 200 76"><defs><style>.cls-1{fill:#c5a47e;}</style></defs><title>ea-h</title><path class="cls-1" d="M131.2,53.56c-.62.5-1.21.95-1.78,1.44a12.16,12.16,0,0,1-6.74,2.73,24.68,24.68,0,0,1-5.5.07,15.24,15.24,0,0,1-8.32-3.54,18.41,18.41,0,0,1-6.62-11.88c-.68-4.92-.21-9.75,2.29-14.09a19.38,19.38,0,0,1,10.92-9.12,19.78,19.78,0,0,1,3.85-.69,23.09,23.09,0,0,1,6.84.33,9.53,9.53,0,0,1,5.2,2.76c.17.18.37.34.56.51a1.79,1.79,0,0,0,.22.1c.06-.44.14-.85.18-1.25s.1-.88.12-1.32.13-.46.46-.46q4,0,8.07,0c.36,0,.45.15.42.47-.13,1.25-.25,2.5-.37,3.75-.16,1.55-.32,3.11-.47,4.66q-.28,2.87-.58,5.72c-.14,1.42-.29,2.84-.43,4.26s-.31,2.94-.43,4.41-.23,3.12-.29,4.68a8.57,8.57,0,0,0,.1,2c.15.78.55,1,1.33.91A10,10,0,0,0,148,45,23.46,23.46,0,0,0,151,36.36a25.38,25.38,0,0,0-.12-6.8,22.89,22.89,0,0,0-2.1-7.47,21.32,21.32,0,0,0-9.14-9.25,33.24,33.24,0,0,0-12-3.92,32.28,32.28,0,0,0-8-.07,30.28,30.28,0,0,0-17.36,8.29,26.63,26.63,0,0,0-8.13,14.53,28.56,28.56,0,0,0-.56,7.7,29.18,29.18,0,0,0,8.2,19.38A26,26,0,0,0,115,66a45,45,0,0,0,11.86,1,40.42,40.42,0,0,0,9.73-1.85,55.18,55.18,0,0,0,9.47-4c.74-.37.74-.37,1.06.38l3.22,7.6c.07.17.14.34.23.58-.92.41-1.79.82-2.68,1.2a60.76,60.76,0,0,1-11.52,3.88,43.37,43.37,0,0,1-7.6,1.09c-2.23.07-4.46.26-6.68.16A42.11,42.11,0,0,1,97.27,67.1a35.16,35.16,0,0,1-9-10.36A34,34,0,0,1,84.68,46.6,47.51,47.51,0,0,1,84,34.76c.4-8.21,3.08-15.58,8.85-21.6A41,41,0,0,1,114.39,1,46.79,46.79,0,0,1,126.76.09a38.66,38.66,0,0,1,19.09,6.62,29.68,29.68,0,0,1,10.78,12.45,30.27,30.27,0,0,1,2.68,9.36,30.64,30.64,0,0,1-6.69,23.56A15.48,15.48,0,0,1,143.06,58a16.57,16.57,0,0,1-6.94,0,6.26,6.26,0,0,1-4.69-4C131.37,53.89,131.3,53.76,131.2,53.56Zm-8.65-24.89c-.28,0-.82.06-1.36.13a9.37,9.37,0,0,0-8,6.34,13,13,0,0,0-.59,7.26,7.87,7.87,0,0,0,5.09,6.21,7.73,7.73,0,0,0,3.51.38,7.34,7.34,0,0,0,4.72-1.92,14.18,14.18,0,0,0,4.37-12A7.14,7.14,0,0,0,128.49,31C127,29.27,125,28.69,122.55,28.67Z"/><path class="cls-1" d="M40.45,37.38V2.66c0-.76,0-.76.76-.76H80c.71,0,.71,0,.71.72,0,4.53,0,9.06,0,13.59,0,.51-.13.66-.65.66q-10.32,0-20.64,0c-.8,0-.8,0-.8.77q0,5.74,0,11.49c0,.67,0,.67.69.67H78.84c.7,0,.71,0,.71.69V43.8c0,.76,0,.76-.75.76H59.49c-.82,0-.82,0-.82.79V57.66c0,.7,0,.7.7.7H80c.73,0,.73,0,.73.72q0,6.58,0,13.17c0,.49-.17.58-.61.58q-19.55,0-39.09,0c-.49,0-.62-.13-.62-.62Q40.46,54.79,40.45,37.38Z"/></svg>