<svg id="Layer_1" data-name="Layer 1" xmlns="http://www.w3.org/2000/svg" viewBox="0 0 200 76"><defs><style>.cls-1{fill:#c5a47e;}</style></defs><title>irpc-h</title><path class="cls-1" d="M200,41.74a3.16,3.16,0,0,0-.2.59c-.18,1.33-.2,1.35-1.58,1.43-1.81.1-3.62.27-5.43.29a48.18,48.18,0,0,1-4.95-.19,2.39,2.39,0,0,1-1.36-.66,14,14,0,0,0-8.29-4.28,20.16,20.16,0,0,0-8.06.68c-5.38,1.48-10.28,3.81-14.11,8a9,9,0,0,0-2.67,5.15,6.56,6.56,0,0,0,5.42,7.39,19.46,19.46,0,0,0,14.52-2.46A18.88,18.88,0,0,1,184,55c3.78.12,7.57,0,11.35.05h1.15c-.47.5-.83.9-1.21,1.29-6.27,6.47-14,10.47-22.57,12.83a54.34,54.34,0,0,1-15.78,2,39.81,39.81,0,0,1-11.56-1.76c-3.74-1.24-6.45-3.59-7.39-7.58a16.29,16.29,0,0,1,.43-8c.16-.63.29-1.27.47-2-.49.11-.84.17-1.18.27a91.11,91.11,0,0,1-13.44,3.07,71.59,71.59,0,0,1-14.11.58,24.54,24.54,0,0,0-2.71-.09,1.32,1.32,0,0,0-.82.7c-1.65,3.13-3.22,6.3-4.91,9.41a18.07,18.07,0,0,1-2.38,3.38A8,8,0,0,1,93,71.62q-10.28-.12-20.55-.15c-1.39,0-2.77.07-4.16.12a12.49,12.49,0,0,1-9.4-3.87,46.1,46.1,0,0,1-7.89-11c-.4-.71-.8-1.43-1.27-2.3-.24.44-.43.74-.58,1.06-1.92,4.1-3.88,8.18-5.75,12.29a5.89,5.89,0,0,1-6,3.82c-3.12-.11-6.24-.1-9.35-.13H23.42c.14-.33.26-.67.41-1Q32.56,52,41.3,33.52c1.24-2.63,3-4.71,6-5.36a14.47,14.47,0,0,1,3-.27c5.84,0,11.68.08,17.52.1,2.56,0,5.12-.11,7.68-.09a22.06,22.06,0,0,1,10.52,2.54,15.3,15.3,0,0,1,4.65,3.61c3,3.77,2.76,8.58-.75,12.21a22.18,22.18,0,0,1-10.94,6,38.79,38.79,0,0,1-9.9,1c-.44,0-.89,0-1.57,0,3.45,6.92,8.66,12,14.32,16.92.18-.33.32-.56.45-.81Q91.17,51.16,100,33c1.16-2.37,2.77-4.27,5.51-4.8a21.53,21.53,0,0,1,3.32-.19c.83,0,1.66.06,2.48.07,6.06.06,12.11,0,18.16.2,3.13.09,6.28-.08,9.4.56a17,17,0,0,1,10.89,7c.13.2.29.38.47.62.25-.13.49-.24.7-.37a50.54,50.54,0,0,1,19.52-7.12c6.48-.89,13-.93,19.32.93a15.78,15.78,0,0,1,7.32,4.07,9.66,9.66,0,0,1,2.69,5.49,3.25,3.25,0,0,0,.2.6ZM109.28,50c.36.1.58.19.81.23a18.41,18.41,0,0,0,5.88.18,27.86,27.86,0,0,0,13.92-5.55,12.18,12.18,0,0,0,4-4.78c1.16-2.74,0-5-3-5.63a14.38,14.38,0,0,0-2.78-.25c-3.33,0-6.66.09-10,.07a1.33,1.33,0,0,0-1.38.89c-1.45,2.91-2.93,5.8-4.4,8.69ZM51.47,50a3.7,3.7,0,0,0,.46.16,16.23,16.23,0,0,0,7,.15A27.19,27.19,0,0,0,72.71,44,9.55,9.55,0,0,0,76,39.14a3.35,3.35,0,0,0-2.5-4.3,13.22,13.22,0,0,0-3.08-.34c-3.33,0-6.67,0-10,0a1.61,1.61,0,0,0-1.69,1.08c-2.27,4.54-4.6,9-6.91,13.58C51.69,49.39,51.59,49.65,51.47,50Z"/><path class="cls-1" d="M0,71.53l2.78-5.87q7.8-16.54,15.62-33.1a13.35,13.35,0,0,1,2.11-3.06A4.51,4.51,0,0,1,23.87,28c5.44-.07,10.88-.1,16.31-.14a.68.68,0,0,1,.2.07c0,.09,0,.2-.1.27a51.69,51.69,0,0,0-6.66,11.41C30.74,45.78,27.78,51.88,24.85,58c-1.27,2.66-2.51,5.34-3.82,8s-3.26,4.73-6.3,5.31a25.34,25.34,0,0,1-4.36.24c-2.61,0-5.22,0-7.83,0Z"/><path class="cls-1" d="M22.47,14.74A10.25,10.25,0,0,1,33.16,4.38a10.34,10.34,0,0,1-.45,20.68A10.19,10.19,0,0,1,22.47,14.74Z"/></svg>