<svg id="Layer_1" data-name="Layer 1" xmlns="http://www.w3.org/2000/svg" viewBox="0 0 200 76"><defs><style>.cls-1{fill:#333;}</style></defs><title>ivict</title><path class="cls-1" d="M153.28,67.57H5.05c-5,0-5,0-5-4.92C.05,45.94.12,29.23,0,12.52c0-3,1.07-4.09,4.05-4.09q73.52.06,147,0c.43,0,.87.08,2.08.2l-8,9.79h28.43c-2.73-3.36-5.17-6.37-8.13-10h13.95c5.55,0,11.11.06,16.67,0,2.83,0,3.9,1.1,3.89,4-.09,17.15-.06,34.3,0,51.45,0,2.1-.28,3.73-3,3.72-9.89,0-19.78,0-29.67,0a6.21,6.21,0,0,1-1.35-.46l24-29c-3.65-4.39-7.15-8.64-10.72-12.84a2.6,2.6,0,0,0-1.7-.83c-4.86-.06-9.72,0-15,0V38.52c0,3.08.22,6.18-.06,9.23-.31,3.38.49,5.58,4.5,5.5v4H151.89c-.06-1.14-.12-2.39-.2-3.9,4.42.06,4.63-2.58,4.54-5.87-.18-7.55,0-15.11,0-23.09-5.18,0-10-.09-14.87.08a4.49,4.49,0,0,0-2.6,1.75c-2.82,3.25-5.43,6.68-8.31,9.88-1.47,1.62-1.15,2.64.13,4.16,6.5,7.66,12.88,15.42,19.3,23.14C150.8,64.55,151.76,65.72,153.28,67.57ZM64.76,23.79c-2.86,8.91-5.64,17.67-8.54,26.39-.29.9-1.26,1.58-1.91,2.36C53.59,51.69,52.54,51,52.2,50c-2-5.69-3.84-11.43-5.71-17.16-1-3-1.92-6-3-9.18,3.58-.52,3.55-2.48,2.89-4.8H32.83c-.55,2.39-.52,4.07,2.29,4.69,1,.22,2,1.63,2.35,2.71,3,8.13,5.84,16.31,8.72,24.48,2.49,7,2.48,6.93,10,7.08,2.56,0,3.73-.81,4.53-3.15,3.24-9.44,6.61-18.83,10-28.2.41-1.12,1.31-2.66,2.25-2.87,3.08-.69,2.67-2.57,2.29-4.75H61.8C60.46,21.86,62.1,23.05,64.76,23.79ZM131.08,56.3c-.26-1.8-.48-3.26-.72-4.93-1.76.17-3.18.39-4.6.44-4.42.18-8.86.55-13.27.36-4.85-.2-7.35-2.7-7.63-7.47a114.56,114.56,0,0,1,0-13.49c.29-4.53,2.64-6.86,7.24-7s9.29.22,13.93.4c1.39.06,2.77.25,4.41.4.22-1.88.39-3.36.59-5.09-7.08-1.61-13.93-2.34-20.94-1.35-6.37.91-10.4,3.78-11.12,10a92.53,92.53,0,0,0,0,19.26c.51,5.48,4.35,8.87,9.87,9.68A57.85,57.85,0,0,0,131.08,56.3ZM27.35,52.5V18.83h-10c-.54,2.39-.44,4.06,2.35,4.61.63.13,1.35,1.79,1.36,2.76.11,7.34-.05,14.69.12,22,.06,2.92-.06,5.32-3.77,5.28v4.2c4.14,0,8,.07,11.87-.07.7,0,1.95-1,1.93-1.45A5.24,5.24,0,0,0,30,53.3C29.56,52.82,28.55,52.84,27.35,52.5Zm50.1,5.19c4,0,8.12.06,12.19-.07A2.28,2.28,0,0,0,91.17,56a3.47,3.47,0,0,0-.88-2.52c-.64-.59-1.78-.67-2.75-1V23.66c2.51-.62,5-1.35,3.25-4.89H81v3.74c0,9.11,0,18.22-.07,27.32,0,1.05-.8,2.83-1.54,3C76.49,53.53,76.83,55.28,77.45,57.69Z"/></svg>