<svg id="Layer_1" data-name="Layer 1" xmlns="http://www.w3.org/2000/svg" viewBox="0 0 200 76"><defs><style>.cls-1{fill:#c5a47e;}</style></defs><title>ptt-h</title><path class="cls-1" d="M101.17,76c0-.65,0-1.3,0-2,0-.23.09-.33.32-.35a19.63,19.63,0,0,0,4.9-1,20,20,0,0,0,7.36-4.3,19,19,0,0,0,5.87-10.57,19.63,19.63,0,0,0,.34-4.33,18.63,18.63,0,0,0-3.16-10.2,37.79,37.79,0,0,0-3.4-4.07A82.4,82.4,0,0,1,107,31.67a26.9,26.9,0,0,1-4.3-8.45,22.42,22.42,0,0,1-.71-4.31,28.28,28.28,0,0,1,1.87-11.77c.86-2.36,1.82-4.67,2.74-7a.25.25,0,0,1,.13-.14c0,.11,0,.22-.08.33a19.28,19.28,0,0,0-1,4.56,10.92,10.92,0,0,0,1,5.54,31.33,31.33,0,0,0,4.12,6.6c2,2.51,4.07,5,6.17,7.4a68.74,68.74,0,0,1,6.83,9A32,32,0,0,1,128,44.58a27.21,27.21,0,0,1,.43,6.3,27.41,27.41,0,0,1-1.09,5.75,23.7,23.7,0,0,1-4.21,8.52,26.85,26.85,0,0,1-11.39,8.46,37.48,37.48,0,0,1-7.85,2.11c-.55.09-1.11.14-1.66.21A1.11,1.11,0,0,0,102,76Z"/><path class="cls-1" d="M97.93,76l-1.19-.2A35.26,35.26,0,0,1,87,73.05,26.45,26.45,0,0,1,75.7,63.48a22.9,22.9,0,0,1-3.13-7.35c-.33-1.3-.62-2.6-.83-3.92a15,15,0,0,1-.11-4c.13-1.24.23-2.48.44-3.71a30.36,30.36,0,0,1,3.87-10.44,61.19,61.19,0,0,1,6.86-9.23,109,109,0,0,0,7.67-9.36A26,26,0,0,0,93.82,9.4a10.34,10.34,0,0,0,.63-3.73,19.17,19.17,0,0,0-1-5.29A1,1,0,0,1,93.35,0a.48.48,0,0,1,.09.11A95.3,95.3,0,0,1,97,9.56a30.08,30.08,0,0,1,1.09,6A22.93,22.93,0,0,1,93.8,30.6a63.52,63.52,0,0,1-6,7.25,60.29,60.29,0,0,0-4.26,4.9,17.13,17.13,0,0,0-3.21,7.54,22.08,22.08,0,0,0-.34,4.3,19,19,0,0,0,6.6,14.11,20.53,20.53,0,0,0,10.07,4.76c.59.11,1.2.17,1.8.24.23,0,.32.12.32.35,0,.65,0,1.3,0,2Z"/><path class="cls-1" d="M100,21.8c.18.62.34,1.24.53,1.85a30.2,30.2,0,0,0,5,9.47A74,74,0,0,0,112.41,41a18.81,18.81,0,0,1,3.92,5.32,16.51,16.51,0,0,1,1.54,5.42,22.78,22.78,0,0,1,.17,2.48,17,17,0,0,1-3.21,10.16,18.05,18.05,0,0,1-32.55-6.9,17.44,17.44,0,0,1-.21-5.3,18,18,0,0,1,5.26-10.91,77.81,77.81,0,0,0,7.59-8.74,30.61,30.61,0,0,0,5-10.49.84.84,0,0,1,0-.17S100,21.81,100,21.8ZM114.8,54.08A14.79,14.79,0,1,0,100,68.83,14.78,14.78,0,0,0,114.8,54.08Z"/></svg>