<svg id="Layer_1" data-name="Layer 1" xmlns="http://www.w3.org/2000/svg" viewBox="0 0 200 76"><defs><style>.cls-1{fill:#333;}</style></defs><title>samsung</title><path class="cls-1" d="M144.27,4.85h7.82c.31.05.61.12.92.14,5.11.33,10.23.57,15.34,1a80.65,80.65,0,0,1,16,3,34,34,0,0,1,10.93,5,11.48,11.48,0,0,1,4.2,5.21c1.07,2.94.42,5.68-1.07,8.29a29.07,29.07,0,0,1-7.66,8.24A94,94,0,0,1,172.33,46.5l-.54.23a9.9,9.9,0,0,0,1-2.6c.19-2.35.17-4.72.2-7.08a.67.67,0,0,0-.47-.45q-3.24,0-6.49,0c-.17,0-.47.23-.48.35,0,.9,0,1.8,0,2.77h2.13c0,1,0,2,0,3a1.89,1.89,0,0,1-2.1,2.13,1.86,1.86,0,0,1-2.08-2.06c0-2,0-4,0-6,0-1.4,0-2.81,0-4.21a2,2,0,0,1,4-.21c.09.58.11,1.18.17,1.81h5.2c0-.54,0-1,0-1.51a5.21,5.21,0,0,0-4.16-5.32,12.33,12.33,0,0,0-5.73-.14c-2.8.57-4.67,2.3-4.75,5.25-.1,3.51-.22,7,0,10.53.17,3.31,1.68,4.84,4.94,5.45a37.2,37.2,0,0,0,4.07.33c-1.84.74-3.73,1.52-5.64,2.26A290.19,290.19,0,0,1,115,64.31,324.25,324.25,0,0,1,78.3,69.77c-5.75.5-11.51,1-17.28,1.18a189.42,189.42,0,0,1-30.49-1,91.08,91.08,0,0,1-15.27-3A33.31,33.31,0,0,1,4.79,62,11.08,11.08,0,0,1,.43,56.29c-.19-.64-.29-1.3-.43-2v-.78a2.25,2.25,0,0,0,.14-.44A13.53,13.53,0,0,1,3.42,46a39,39,0,0,1,7.83-7.13,107.1,107.1,0,0,1,18-10,1.25,1.25,0,0,1,.34,0c-.12.18-.18.29-.26.39a5.85,5.85,0,0,0,1.05,8,33,33,0,0,0,3.07,2c1.18.76,2.39,1.47,3.54,2.27a2.1,2.1,0,0,1,.8,2.15c-.15,1.12-.8,1.65-2.07,1.62a1.76,1.76,0,0,1-1.95-1.69,10.58,10.58,0,0,1,0-1.49c0-.56-.2-.71-.72-.7-1.1,0-2.19,0-3.29,0-1.9,0-1.7-.32-1.67,1.71a5.42,5.42,0,0,0,4.35,5.62,12.64,12.64,0,0,0,6.49,0,5.17,5.17,0,0,0,4.15-4.52c.41-2.87-.24-5.28-2.88-6.85-.92-.55-1.85-1.07-2.76-1.61s-2.08-1.2-3-1.9a1.91,1.91,0,0,1-.53-2.45A1.88,1.88,0,0,1,36,30.51a1.78,1.78,0,0,1,1.47,1.93c0,.38,0,.75,0,1.12h5.25c0-.59,0-1.13,0-1.67a4.4,4.4,0,0,0-2.91-4.3,8.7,8.7,0,0,0-2.4-.59c-1.16-.1-2.33,0-3.49,0,1.91-.91,3.83-1.7,5.78-2.43A291.33,291.33,0,0,1,89.82,10.84c7.33-1.35,14.72-2.44,22.1-3.45,5.39-.74,10.81-1.26,16.22-1.68,4.8-.37,9.62-.48,14.43-.71C143.14,5,143.71,4.9,144.27,4.85ZM79.05,43h-.11c-.15-.89-.29-1.79-.44-2.68-.64-4-1.29-8-1.91-12-.1-.63-.36-.84-1-.83-2.16,0-4.32,0-6.48,0-1.22,0-1.22,0-1.25,1.23-.11,4.92-.23,9.83-.32,14.74,0,1.58,0,3.16,0,4.76h5.28V30.31c.54,1.95.9,3.91,1.27,5.87.72,3.85,1.45,7.7,2.16,11.55.07.42.22.57.64.56,1.43,0,2.87,0,4.3,0a.79.79,0,0,0,.59-.5c.76-3.95,1.49-7.9,2.22-11.85.37-1.95.73-3.9,1.1-5.85h.2V48.22H90.5a3.58,3.58,0,0,0,0-.53c-.14-6.52-.3-13-.43-19.57,0-.57-.29-.63-.73-.62-2.3,0-4.59,0-6.88,0-.79,0-1,.28-1.1,1C80.63,33.32,79.83,38.16,79.05,43ZM147.66,27.5c.09,5.38.18,10.63.28,16.11-.12-.33-.17-.45-.2-.57q-2.19-7.42-4.35-14.85a.81.81,0,0,0-.92-.7c-2,0-4.07,0-6.1,0-.79,0-1,.22-1,1,0,5.88,0,11.76,0,17.63a11.06,11.06,0,0,0,0,1.41c0,.2.23.54.37.54,1.58,0,3.15,0,4.82,0l-.24-16.23a1,1,0,0,1,.3.5c1.51,5,3,9.92,4.52,14.89a1,1,0,0,0,1.19.87c1.85,0,3.7,0,5.55,0,1,0,1,0,1-1q0-8.9,0-17.79c0-1.78,0-1.78-1.83-1.78Zm-27.25,0c-1.61,0-3.09,0-4.57,0-.59,0-.76.2-.76.77,0,5.07,0,10.14.08,15.21a5,5,0,0,0,3.83,5,12.15,12.15,0,0,0,6.25.16,5.22,5.22,0,0,0,4.5-5.52c0-5,0-9.93,0-14.89,0-.57-.22-.72-.74-.71-1,0-2,0-3,0-1.6,0-1.6,0-1.6,1.62,0,4.66,0,9.31,0,14a1.89,1.89,0,0,1-2.29,2c-1.1-.14-1.68-.92-1.68-2.33q0-7.09,0-14.19Zm-57,20.78c0-.36-.06-.64-.11-.92q-1.77-9.53-3.52-19c-.1-.58-.3-.83-.94-.82-2.55,0-5.1,0-7.66,0-.71,0-.91.27-1,.92-.94,5.2-1.92,10.4-2.89,15.6-.25,1.39-.5,2.79-.77,4.28,1.85,0,3.59,0,5.33,0,.15,0,.4-.4.44-.64C53.15,41.72,54,35.83,55,29.83a1.62,1.62,0,0,1,.15.36c.23,1.52.44,3,.66,4.55.64,4.34,1.26,8.68,1.92,13,0,.2.27.51.42.51C59.84,48.29,61.58,48.28,63.38,48.28Zm46.54-14.63V32.32a4.63,4.63,0,0,0-3.76-4.95,12.19,12.19,0,0,0-6.4,0,5,5,0,0,0-4,3.87c-.5,2.36-.09,4.48,2,6,1.15.84,2.41,1.54,3.62,2.3.92.58,1.88,1.11,2.74,1.77a3,3,0,0,1,.91,1.31,1.84,1.84,0,0,1-.53,2.13,2.2,2.2,0,0,1-2.36.26,1.63,1.63,0,0,1-1-1.76c0-.33,0-.68,0-1,.07-.66-.15-.94-.86-.9-1,.06-2.09,0-3.13,0-1.69,0-1.69,0-1.66,1.71A5.36,5.36,0,0,0,99.8,48.6a12.14,12.14,0,0,0,6.47,0A4.72,4.72,0,0,0,110,45.35c1-3.84.41-6.14-2.65-8.07-1.25-.79-2.58-1.44-3.85-2.2a13.26,13.26,0,0,1-2-1.45,1.89,1.89,0,0,1-.2-2.31,2,2,0,0,1,2.24-.65,1.65,1.65,0,0,1,1.17,1.65c0,.43,0,.86,0,1.33Z"/></svg>