<svg id="Layer_1" data-name="Layer 1" xmlns="http://www.w3.org/2000/svg" viewBox="0 0 200 76"><defs><style>.cls-1{fill:#c5a47e;}</style></defs><title>toshi-h</title><path class="cls-1" d="M45.39,22.79c1.16.13,2.32.23,3.47.39a15.32,15.32,0,0,1,2,.44c3.45,1,5.21,3.37,5.76,6.78A54.89,54.89,0,0,1,57,40.65,36.12,36.12,0,0,1,56.51,46,7.52,7.52,0,0,1,50,52.56a36.07,36.07,0,0,1-13.66,0c-3.91-.75-6-3-6.66-6.94a49.45,49.45,0,0,1-.39-9.26,46.37,46.37,0,0,1,.4-5.89c.61-4.13,2.85-6.38,7-7.14,1.11-.21,2.23-.28,3.35-.41l.92-.12Zm-8,14.89c.12,1.85.15,3.43.33,5,.27,2.32,1.41,3.4,3.74,3.57a26,26,0,0,0,3.42,0,3.33,3.33,0,0,0,3.46-3,33.93,33.93,0,0,0,.07-10.11c-.31-2.24-1.32-3.11-3.6-3.33a20.44,20.44,0,0,0-3.67,0,3.24,3.24,0,0,0-3.3,3C37.62,34.47,37.57,36.22,37.44,37.68Z"/><path class="cls-1" d="M76.78,22.79c1.24.13,2.48.24,3.72.39,2.25.27,4.19,1.08,5.33,3.2A9,9,0,0,1,86.75,30c0,.78,0,1.57,0,2.41H79c0-.22,0-.46,0-.7a2.27,2.27,0,0,0-2.13-2.44,22.58,22.58,0,0,0-4.65,0c-1.44.15-2,1.1-2,2.61a2.23,2.23,0,0,0,2.13,2.46c1.61.19,3.24.22,4.85.39a48.73,48.73,0,0,1,4.83.65A6.39,6.39,0,0,1,87.3,40.8a15.82,15.82,0,0,1-.08,6.5c-.69,3.07-2.89,4.6-5.79,5.25a29.72,29.72,0,0,1-8.26.55,41.48,41.48,0,0,1-5.89-.67c-3.34-.7-5-2.69-5.22-6.08-.08-1.07,0-2.15,0-3.27h7.74l.09,1a2.39,2.39,0,0,0,2.32,2.49,24.56,24.56,0,0,0,4.85,0,2.65,2.65,0,0,0,2-4,2.79,2.79,0,0,0-2.46-1.34c-1.77-.16-3.54-.18-5.3-.4a29.14,29.14,0,0,1-4.83-.89,5.8,5.8,0,0,1-4.1-4.61,14.92,14.92,0,0,1,0-6.55,6.92,6.92,0,0,1,5.89-5.45c1.16-.24,2.35-.28,3.53-.42.29,0,.57-.08.86-.12Z"/><path class="cls-1" d="M0,23.29c.27,0,.54.05.8.05H26.34v7.26H17.59v.85c0,6.81,0,13.63,0,20.44,0,.6-.16.76-.76.76q-3.66-.06-7.32,0c-.59,0-.72-.19-.72-.74,0-6.79,0-13.59,0-20.38v-.9H0Z"/><path class="cls-1" d="M162.56,37.31a5.31,5.31,0,0,0,.52.2c2.76.83,4.42,2.62,4.6,5.53a16.83,16.83,0,0,1-.18,4.2A6,6,0,0,1,162.71,52a18.53,18.53,0,0,1-4.32.55c-5.13.07-10.25,0-15.38,0-.16,0-.33,0-.53,0V23.33h.66c4.82,0,9.63,0,14.44,0a23,23,0,0,1,4.53.46,5.85,5.85,0,0,1,5,5.69,15.08,15.08,0,0,1-.08,3.29,4.89,4.89,0,0,1-3.33,4.08ZM150.7,45.88a1,1,0,0,0,.23.08c2,0,3.91,0,5.87,0a2.32,2.32,0,0,0,2-1,3.33,3.33,0,0,0,.17-3.22c-.43-1-1.39-1.11-2.33-1.12q-2.75,0-5.49,0a4.36,4.36,0,0,0-.49.06Zm0-11.13c2.19,0,4.36.08,6.51,0,1.12-.06,1.76-1.19,1.7-2.46a2,2,0,0,0-2-2.21c-2-.06-4.08,0-6.12,0,0,0-.06.05-.1.08Z"/><path class="cls-1" d="M111.07,52.54V41.37h-9.65V52.56H93.19V23.37h8.17V34h9.7V23.38c.23,0,.39-.05.55-.05,2.37,0,4.75,0,7.12,0,.47,0,.61.13.61.6q0,14,0,28.09c0,.33,0,.61-.46.61h-7.44A2.45,2.45,0,0,1,111.07,52.54Z"/><path class="cls-1" d="M170.05,52.53c.06-.22.1-.44.16-.65q4.26-14,8.49-28a.72.72,0,0,1,.83-.59c3.67,0,7.33,0,11,0a.69.69,0,0,1,.79.56q4.25,14.06,8.51,28.09c.06.17.1.35.17.59-.22,0-.4,0-.58,0-2.45,0-4.91,0-7.37,0-.44,0-.66-.11-.78-.57-.39-1.44-.84-2.86-1.24-4.3-.11-.4-.26-.57-.71-.56-2.88,0-5.75,0-8.63,0a.58.58,0,0,0-.68.52c-.4,1.47-.84,2.95-1.3,4.41-.06.2-.32.47-.5.47-2.64,0-5.29,0-7.93,0A1.32,1.32,0,0,1,170.05,52.53ZM188,40.7c-1-3.42-1.95-6.74-2.92-10.06h-.14C184,34,183,37.31,182,40.7Z"/><path class="cls-1" d="M126.72,23.33h4.1c1.19,0,2.37,0,3.56,0,.51,0,.63.15.63.64,0,3,0,6,0,9V52.57h-8.28Z"/></svg>