<svg xmlns="http://www.w3.org/2000/svg" width="72" height="24" viewBox="0 0 72 24"><g transform="translate(0 0)"><g class="nc-icon-wrapper" transform="translate(0.5, 0.5)" fill="#929292"><line data-cap="butt" fill="none" stroke="#929292" stroke-width="1" stroke-miterlimit="10" x1="1" y1="6" x2="23" y2="6" stroke-linejoin="round" stroke-linecap="round"/> <polygon fill="none" stroke="#929292" stroke-width="1" stroke-linecap="round" stroke-miterlimit="10" points="23,6 17,1 7,1 1,6 1,23 23,23 " stroke-linejoin="round"/> <polygon data-color="color-2" fill="none" stroke="#929292" stroke-width="1" stroke-linecap="round" stroke-miterlimit="10" points=" 15,13 9,13 9,6 11,1 13,1 15,6 " stroke-linejoin="round"/></g></g><g transform="translate(24 0)"><g class="nc-icon-wrapper" transform="translate(0.5, 0.5)" fill="#929292"><circle data-color="color-2" fill="none" stroke="#929292" stroke-width="1" stroke-linecap="round" stroke-miterlimit="10" cx="7" cy="21" r="2" stroke-linejoin="round"/> <circle data-color="color-2" fill="none" stroke="#929292" stroke-width="1" stroke-linecap="round" stroke-miterlimit="10" cx="19" cy="21" r="2" stroke-linejoin="round"/> <polyline data-cap="butt" fill="none" stroke="#929292" stroke-width="1" stroke-miterlimit="10" points="21.238,9.81 20,16 6,16 4,1 1,1 " stroke-linejoin="round" stroke-linecap="round"/> <line data-cap="butt" fill="none" stroke="#929292" stroke-width="1" stroke-miterlimit="10" x1="4.667" y1="6" x2="13" y2="6" stroke-linejoin="round" stroke-linecap="round"/> <circle data-color="color-2" fill="none" stroke="#929292" stroke-width="1" stroke-linecap="round" stroke-miterlimit="10" cx="18" cy="6" r="5" stroke-linejoin="round"/> <line data-color="color-2" fill="none" stroke="#929292" stroke-width="1" stroke-linecap="round" stroke-miterlimit="10" x1="18" y1="4" x2="18" y2="8" stroke-linejoin="round"/> <line data-color="color-2" fill="none" stroke="#929292" stroke-width="1" stroke-linecap="round" stroke-miterlimit="10" x1="16" y1="6" x2="20" y2="6" stroke-linejoin="round"/></g></g><g transform="translate(48 0)"><g class="nc-icon-wrapper" fill="#929292"><path fill="#929292" d="M11,11H0V0h11V11z M2,9h7V2H2V9z"/> <path fill="#929292" d="M24,11H13V0h11V11z M15,9h7V2h-7V9z"/> <path fill="#929292" d="M11,24H0V13h11V24z M2,22h7v-7H2V22z"/> <polygon fill="#929292" points="24,20 22,20 22,15 20,15 20,18 14,18 14,13 16,13 16,16 18,16 18,13 24,13 "/> <polygon fill="#929292" points="24,24 14,24 14,20 16,20 16,22 24,22 "/> <rect data-color="color-2" x="4" y="4" fill="#929292" width="3" height="3"/> <rect data-color="color-2" x="17" y="4" fill="#929292" width="3" height="3"/> <rect data-color="color-2" x="4" y="17" fill="#929292" width="3" height="3"/></g></g></svg>