<svg id="Layer_1" data-name="Layer 1" xmlns="http://www.w3.org/2000/svg" viewBox="0 0 470 410"><defs><style>.cls-1{fill:#fcb131;}.cls-1,.cls-2{fill-rule:evenodd;}.cls-2{fill:#ed1b2e;}</style></defs><title>mastercard-01</title><path class="cls-1" d="M234.81,308.82a136.42,136.42,0,0,0,92.42,35.88C403.35,344.7,465,282.6,465,206.12S403.23,67.54,327.23,67.54a136.2,136.2,0,0,0-92.42,35.89,139,139,0,0,0,0,205.39Z"/><path class="cls-2" d="M279.05,191.44a142.64,142.64,0,0,0-2.29-14.61H192.47a145.38,145.38,0,0,1,4-14.61h76.31A156.31,156.31,0,0,0,267,147.49H202.37a155.59,155.59,0,0,1,8-14.61h48.79a125,125,0,0,0-10.51-14.61H220.85a131.36,131.36,0,0,1,13.88-14.61,136.35,136.35,0,0,0-92.37-35.87C66.28,67.79,4.7,129.86,4.7,206.3S66.4,344.8,142.36,344.8a136.11,136.11,0,0,0,92.37-35.86h0a145,145,0,0,0,13.89-14.61H220.85a158.15,158.15,0,0,1-10.51-14.62h48.79c2.89-4.71,5.55-9.66,8-14.61H202.49a154.86,154.86,0,0,1-5.91-14.61h76.31c1.57-4.83,2.9-9.66,4-14.61a117.73,117.73,0,0,0,2.29-14.73c.48-4.83.73-9.66.73-14.61-.13-5.32-.37-10.27-.85-15.1Z"/></svg>