<svg id="Layer_1" data-name="Layer 1" xmlns="http://www.w3.org/2000/svg" viewBox="0 0 363.61 219.49"><defs><style>.cls-1{fill:#fcb131;}.cls-1,.cls-2{fill-rule:evenodd;}.cls-2{fill:#ed1b2e;}</style></defs><title>mastercard</title><path class="cls-1" d="M183.32,286.33a107.91,107.91,0,0,0,73.09,28.37c60.18,0,108.9-49.1,108.9-109.58S316.5,95.55,256.41,95.55a107.73,107.73,0,0,0-73.09,28.37,110,110,0,0,0,0,162.41Z" transform="translate(-1.7 -95.31)"/><path class="cls-2" d="M219.09,193.29a115.56,115.56,0,0,0-1.82-11.58H150.48a115.35,115.35,0,0,1,3.16-11.58h60.47a122.89,122.89,0,0,0-4.59-11.67H158.33a122.79,122.79,0,0,1,6.31-11.58H203.3A99.12,99.12,0,0,0,195,135.3H173a105.57,105.57,0,0,1,11-11.57,108,108,0,0,0-73.19-28.42C50.5,95.31,1.7,144.49,1.7,205.05S50.59,314.8,110.78,314.8A107.88,107.88,0,0,0,184,286.38h0a114.45,114.45,0,0,0,11-11.57H173a128,128,0,0,1-8.33-11.58H203.3c2.3-3.73,4.4-7.66,6.31-11.58H158.43a119.27,119.27,0,0,1-4.69-11.58h60.47c1.24-3.82,2.29-7.65,3.15-11.57a90.81,90.81,0,0,0,1.82-11.68,113.46,113.46,0,0,0,.58-11.57c-.1-4.21-.29-8.14-.67-12Z" transform="translate(-1.7 -95.31)"/></svg>