<svg id="Layer_1" data-name="Layer 1" xmlns="http://www.w3.org/2000/svg" viewBox="0 0 470.48 410"><defs><style>.cls-1{fill:#025380;}.cls-1,.cls-2{fill-rule:evenodd;}.cls-2{fill:#f1a71e;}</style></defs><title>visa</title><path class="cls-1" d="M19.64,0C11.28,0,6,2.22,3.19,6.82.71,12.06-.48,20.63-.48,33.32V119H470V33.32C470,11,463,.16,449.05.16H19.64Z" transform="translate(0.48)"/><path class="cls-2" d="M-.48,375.6c0,22.67,6.8,34.4,20.12,34.4H449.05c14,0,20.95-11.73,20.95-34.4V290H-.48v85.6Z" transform="translate(0.48)"/><path class="cls-1" d="M161.8,162c0,2.48-.37,4.46-1.29,5.75L129.36,226.3,127.43,155H77.63l16.72,8.62c4.78,3.27,7.26,7.53,7.26,12.88l4.59,75.79h24.35L188.91,155H159a9.55,9.55,0,0,1,2.76,7Z" transform="translate(0.48)"/><path class="cls-1" d="M363.22,157.84l1.93-2.87H334.74c1.1,1.19,1.47,1.68,1.47,2.08-.37,1.49-1.11,2.48-1.47,3.67L290.45,247.8c-1.11,1.58-2.12,2.87-3.4,4.46h25.08l-1.29-2.88c0-2.47,1.29-7.13,4-13.57l5.33-10.7H346c1.1,9,1.74,16.55,2.11,22.09L346,252.36H377.1L372.5,245l-9.28-87.18Zm-18.47,53.5H326.28l15.81-32.79,2.66,32.79Z" transform="translate(0.48)"/><path class="cls-1" d="M267.84,154.92a38.91,38.91,0,0,0-25.09,8.62c-8,5-11.94,11.29-11.94,19.22,0,9,2.85,16.84,8.54,22.78l17.28,12.88c6.25,4.76,9.28,9,9.28,12.88a11.85,11.85,0,0,1-4.59,9.41,16,16,0,0,1-10.66,3.67c-6.25,0-16.91-4.76-31.71-13.58v17.84q17.37,11.3,33.64,11.29c10.29,0,19-3.07,26.55-10,8-6.34,11.95-13.78,11.95-22.1,0-6.93-2.85-13.27-9.28-19.91L265.27,195c-5.52-4.76-8.55-9-8.55-12.28,0-7.53,4.14-11.3,12.5-11.3,5.7,0,14.06,3.47,25.27,10.7l3.4-18.62a57,57,0,0,0-30.05-8.62Z" transform="translate(0.48)"/><path class="cls-1" d="M201.68,252.16c-.37-4.06-1.1-7.73-1.47-11.49L222.81,162l5.33-7.13H195.61c.37,1.68.74,4.06,1.11,5.75a31,31,0,0,1-.37,5.74l-22.61,77.87-4.59,7.83h32.53Z" transform="translate(0.48)"/></svg>